HIERARCHY
ROOT Hips
{
	OFFSET 0.00000 0.00000 0.00000
	CHANNELS 6 Xposition Yposition Zposition Zrotation Yrotation Xrotation 
	JOINT LHipJoint
	{
		OFFSET 0 0 0
		CHANNELS 3 Zrotation Yrotation Xrotation
		JOINT LeftUpLeg
		{
			OFFSET 1.17584 -1.63585 1.00361
			CHANNELS 3 Zrotation Yrotation Xrotation
			JOINT LeftLeg
			{
				OFFSET 2.23889 -6.15131 0.00000
				CHANNELS 3 Zrotation Yrotation Xrotation
				JOINT LeftFoot
				{
					OFFSET 2.65161 -7.28525 0.00000
					CHANNELS 3 Zrotation Yrotation Xrotation
					JOINT LeftToeBase
					{
						OFFSET 0.24898 -0.68407 1.57235
						CHANNELS 3 Zrotation Yrotation Xrotation
						End Site
						{
							OFFSET 0.00000 -0.00000 0.85838
						}
					}
				}
			}
		}
	}
	JOINT RHipJoint
	{
		OFFSET 0 0 0
		CHANNELS 3 Zrotation Yrotation Xrotation
		JOINT RightUpLeg
		{
			OFFSET -1.15592 -1.63585 1.00361
			CHANNELS 3 Zrotation Yrotation Xrotation
			JOINT RightLeg
			{
				OFFSET -2.34071 -6.43104 0.00000
				CHANNELS 3 Zrotation Yrotation Xrotation
				JOINT RightFoot
				{
					OFFSET -2.59113 -7.11908 0.00000
					CHANNELS 3 Zrotation Yrotation Xrotation
					JOINT RightToeBase
					{
						OFFSET -0.17867 -0.49089 1.70981
						CHANNELS 3 Zrotation Yrotation Xrotation
						End Site
						{
							OFFSET -0.00000 -0.00000 0.89861
						}
					}
				}
			}
		}
	}
	JOINT LowerBack
	{
		OFFSET 0 0 0
		CHANNELS 3 Zrotation Yrotation Xrotation
		JOINT Spine
		{
			OFFSET -0.02255 1.90764 -0.16605
			CHANNELS 3 Zrotation Yrotation Xrotation
			JOINT Spine1
			{
				OFFSET -0.00365 1.92150 -0.04898
				CHANNELS 3 Zrotation Yrotation Xrotation
				JOINT Neck
				{
					OFFSET 0 0 0
					CHANNELS 3 Zrotation Yrotation Xrotation
					JOINT Neck1
					{
						OFFSET 0.00372 1.59170 0.08694
						CHANNELS 3 Zrotation Yrotation Xrotation
						JOINT Head
						{
							OFFSET 0.12558 1.58643 -0.08078
							CHANNELS 3 Zrotation Yrotation Xrotation
							End Site
							{
								OFFSET 0.04211 1.60835 -0.03803
							}
						}
					}
				}
				JOINT LeftShoulder
				{
					OFFSET 0 0 0
					CHANNELS 3 Zrotation Yrotation Xrotation
					JOINT LeftArm
					{
						OFFSET 3.69324 0.96316 0.19077
						CHANNELS 3 Zrotation Yrotation Xrotation
						JOINT LeftForeArm
						{
							OFFSET 4.87796 -0.00000 -0.00000
							CHANNELS 3 Zrotation Yrotation Xrotation
							JOINT LeftHand
							{
								OFFSET 3.23169 -0.00000 0.00000
								CHANNELS 3 Zrotation Yrotation Xrotation
								JOINT LeftFingerBase
								{
									OFFSET 0 0 0
									CHANNELS 3 Zrotation Yrotation Xrotation
									JOINT LeftHandIndex1
									{
										OFFSET 0.73132 -0.00000 0.00000
										CHANNELS 3 Zrotation Yrotation Xrotation
										End Site
										{
											OFFSET 0.58961 -0.00000 0.00000
										}
									}
								}
								JOINT LThumb
								{
									OFFSET 0 0 0
									CHANNELS 3 Zrotation Yrotation Xrotation
									End Site
									{
										OFFSET 0.59861 -0.00000 0.59861
									}
								}
							}
						}
					}
				}
				JOINT RightShoulder
				{
					OFFSET 0 0 0
					CHANNELS 3 Zrotation Yrotation Xrotation
					JOINT RightArm
					{
						OFFSET -3.66103 0.75145 0.08281
						CHANNELS 3 Zrotation Yrotation Xrotation
						JOINT RightForeArm
						{
							OFFSET -4.91430 -0.00000 0.00000
							CHANNELS 3 Zrotation Yrotation Xrotation
							JOINT RightHand
							{
								OFFSET -3.29093 -0.00000 0.00000
								CHANNELS 3 Zrotation Yrotation Xrotation
								JOINT RightFingerBase
								{
									OFFSET 0 0 0
									CHANNELS 3 Zrotation Yrotation Xrotation
									JOINT RightHandIndex1
									{
										OFFSET -0.54512 -0.00000 0.00000
										CHANNELS 3 Zrotation Yrotation Xrotation
										End Site
										{
											OFFSET -0.43949 -0.00000 0.00000
										}
									}
								}
								JOINT RThumb
								{
									OFFSET 0 0 0
									CHANNELS 3 Zrotation Yrotation Xrotation
									End Site
									{
										OFFSET -0.44620 -0.00000 0.44620
									}
								}
							}
						}
					}
				}
			}
		}
	}
}
MOTION
Frames: 6
Frame Time: .0083333
-14.4130 15.1818 1.1763 -22.3613 14.8297 165.4400 0.0000 0.0000 0.0000 -4.5097 31.6038 -115.2271 33.3565 15.0242 132.4872 8.2608 12.8889 53.5697 9.0165 16.8183 56.1471 0.0000 0.0000 0.0000 -9.8425 -6.5241 -9.2705 0.0000 0.0000 -0.0000 -2.9923 1.8712 -32.2983 -10.7860 -17.8287 62.0845 0.4648 2.1525 9.0020 -6.4147 2.4345 -0.4287 -7.3722 1.0640 -5.2100 8.6570 9.5829 -2.5726 18.6603 9.6243 13.4550 4.7150 5.1872 4.0221 -0.0000 0.0000 0.0000 25.3423 -38.4935 -89.0318 61.9689 -56.8122 -35.9842 -0.0000 -0.0000 12.1699 89.8797 -37.1500 -89.8008 -7.1250 0.0000 -0.0000 31.3507 -54.4585 -44.8677 -0.0000 0.0000 0.0000 -43.6394 27.1842 -68.5812 -37.1927 46.3159 -16.3792 0.0000 -0.0000 -26.2181 -81.4947 -38.0722 76.3682 7.1250 -0.0000 -0.0000 -131.8050 67.6112 -151.2677
-14.4018 15.2067 1.1448 -21.9511 14.3188 164.9030 0.0000 0.0000 0.0000 -4.6349 30.4470 -116.2656 33.3264 15.0507 132.3713 8.1106 1.4916 54.3584 8.3130 16.3447 53.6825 0.0000 0.0000 0.0000 -9.3393 -6.8058 -9.1098 0.0000 0.0000 -0.0000 -2.9893 1.0960 -32.4844 -10.8024 -17.8370 62.1382 0.7228 2.0356 9.7060 -6.2742 2.3040 -0.1437 -7.3801 0.9931 -5.3178 8.5294 9.5662 -2.5210 18.6044 9.8118 12.6691 4.6846 5.2350 3.7520 -0.0000 0.0000 0.0000 25.5035 -38.5477 -89.1776 61.9120 -56.7983 -35.9366 -0.0000 -0.0000 11.8833 89.7881 -37.1736 -89.6494 -7.1250 0.0000 -0.0000 31.2409 -54.3641 -44.7247 -0.0000 0.0000 0.0000 -43.7274 26.8730 -68.9030 -37.1040 46.2574 -16.3151 0.0000 -0.0000 -26.1089 -80.8979 -37.8194 75.3569 7.1250 -0.0000 -0.0000 -130.0351 68.1197 -149.4766
-14.3752 15.2178 1.1096 -21.4812 13.8119 164.3390 0.0000 0.0000 0.0000 -4.4144 28.7720 -117.1248 33.2282 15.1366 131.9943 6.5770 -9.5738 52.0275 7.3732 15.6382 50.2719 0.0000 0.0000 0.0000 -7.9529 -7.1144 -9.0132 0.0000 -0.0000 0.0000 -2.6999 -3.0740 -32.2635 -10.2392 -17.5422 60.2848 1.0075 1.9267 10.4214 -6.1172 2.1921 0.1391 -7.3871 0.9312 -5.4308 8.3981 9.5233 -2.4036 18.4665 10.0255 11.6795 4.6187 5.2832 3.4114 0.0000 -0.0000 0.0000 25.7224 -38.6291 -89.3336 61.7917 -56.7688 -35.8359 -0.0000 -0.0000 11.5979 89.6245 -37.1235 -89.3778 -7.1250 0.0000 -0.0000 31.1303 -54.1611 -44.6046 0.0000 -0.0000 0.0000 -43.7942 26.5614 -69.2403 -36.9759 46.1726 -16.2226 0.0000 -0.0000 -25.9822 -80.2754 -37.5440 74.2922 7.1250 -0.0000 -0.0000 -128.0689 68.6346 -147.4857
-14.3482 15.2378 1.0711 -20.9758 13.3200 163.7620 0.0000 0.0000 0.0000 -4.1223 27.0484 -118.1784 33.1175 15.2321 131.5716 3.8310 -19.5541 47.1986 6.0424 14.4693 45.1517 0.0000 0.0000 0.0000 -6.5134 -7.4742 -8.7231 0.0000 0.0000 -0.0000 -2.1988 -7.3247 -31.3879 -9.4779 -17.1056 57.7285 1.2783 1.8299 11.1284 -5.9398 2.1001 0.4050 -7.3655 0.8796 -5.5545 8.2247 9.4436 -2.2263 18.2284 10.2566 10.4662 4.5175 5.3271 2.9953 -0.0000 0.0000 0.0000 25.9770 -38.7256 -89.4735 61.5894 -56.7188 -35.6667 -0.0000 -0.0000 11.3235 89.3769 -36.9616 -88.9639 -7.1250 0.0000 -0.0000 31.0404 -53.8198 -44.5454 -0.0000 0.0000 0.0000 -43.8665 26.2677 -69.5939 -36.7920 46.0502 -16.0901 0.0000 -0.0000 -25.8282 -79.6457 -37.2769 73.2132 7.1250 -0.0000 -0.0000 -126.0154 69.1361 -145.3889
-14.3223 15.2639 1.0298 -20.4606 12.8476 163.1800 0.0000 0.0000 0.0000 -3.8528 25.2697 -119.4830 32.9964 15.3349 131.1121 0.1563 -27.7533 39.6198 4.1052 12.2990 36.7982 0.0000 0.0000 0.0000 -5.0796 -7.8805 -8.2621 0.0000 0.0000 -0.0000 -1.5847 -10.9886 -29.9680 -8.5948 -16.5397 54.6778 1.4948 1.7425 11.8099 -5.7333 2.0197 0.6467 -7.2807 0.8352 -5.6900 7.9443 9.3268 -2.0195 17.9070 10.4999 9.0316 4.3983 5.3663 2.5062 -0.0000 -0.0000 0.0000 26.2163 -38.8076 -89.5594 61.3002 -56.6466 -35.4251 -0.0000 -0.0000 11.0524 89.0853 -36.7264 -88.4706 -7.1250 0.0000 -0.0000 30.9715 -53.3967 -44.5338 -0.0000 -0.0000 0.0000 -43.9896 26.0213 -69.9898 -36.5421 45.8824 -15.9105 0.0000 -0.0000 -25.6288 -78.9998 -37.0319 72.1121 7.1250 -0.0000 -0.0000 -123.8895 69.6303 -143.1888
-14.2980 15.2961 0.9848 -19.9441 12.3979 162.5970 0.0000 0.0000 0.0000 -3.5639 23.4618 -120.9507 32.8536 15.4539 130.5743 -3.1710 -33.0886 29.5387 1.7652 8.3588 23.8092 0.0000 0.0000 0.0000 -3.7075 -8.3284 -7.6433 0.0000 0.0000 -0.0000 -1.0701 -13.2910 -28.4160 -7.8882 -16.0364 52.1589 1.6959 1.6513 12.4945 -5.5353 1.9345 0.8333 -7.1970 0.7866 -5.8856 7.7039 9.1787 -1.7150 17.1095 10.8005 7.1676 4.6045 5.3893 2.0631 -0.0000 -0.0000 0.0000 26.4331 -38.8524 -89.4906 60.9342 -56.5538 -35.1195 -0.0000 -0.0000 10.7514 88.8146 -36.4785 -88.0066 -7.1250 0.0000 -0.0000 30.9298 -52.9878 -44.5579 -0.0000 -0.0000 0.0000 -44.1083 25.8694 -70.4081 -36.2229 45.6659 -15.6817 0.0000 -0.0000 -25.3836 -78.3032 -36.8198 70.9422 7.1250 -0.0000 -0.0000 -121.6421 70.1408 -140.8171
